<svg width="52" height="55" viewBox="0 0 52 55" fill="none" xmlns="http://www.w3.org/2000/svg">
<path opacity="0.53" d="M13.2 54.76C9.096 54.76 5.95467 53.5947 3.776 51.264C1.59733 48.9333 0.508 45.64 0.508 41.384V13.416C0.508 9.16 1.59733 5.86666 3.776 3.536C5.95467 1.20533 9.096 0.0399971 13.2 0.0399971C17.304 0.0399971 20.4453 1.20533 22.624 3.536C24.8027 5.86666 25.892 9.16 25.892 13.416V41.384C25.892 45.64 24.8027 48.9333 22.624 51.264C20.4453 53.5947 17.304 54.76 13.2 54.76ZM13.2 47.16C16.088 47.16 17.532 45.412 17.532 41.916V12.884C17.532 9.388 16.088 7.64 13.2 7.64C10.312 7.64 8.868 9.388 8.868 12.884V41.916C8.868 45.412 10.312 47.16 13.2 47.16ZM43.2497 13.416H34.5097V7.488C36.891 7.488 38.791 7.28533 40.2097 6.88C41.679 6.47467 42.8444 5.816 43.7057 4.904C44.567 3.94133 45.327 2.57333 45.9857 0.799996H51.6097V54H43.2497V13.416Z" fill="#D9D9D9"/>
</svg>
