<svg width="57" height="55" viewBox="0 0 57 55" fill="none" xmlns="http://www.w3.org/2000/svg">
<path opacity="0.53" d="M13.2 54.76C9.096 54.76 5.95467 53.5947 3.776 51.264C1.59733 48.9333 0.508 45.64 0.508 41.384V13.416C0.508 9.16 1.59733 5.86666 3.776 3.536C5.95467 1.20533 9.096 0.0399971 13.2 0.0399971C17.304 0.0399971 20.4453 1.20533 22.624 3.536C24.8027 5.86666 25.892 9.16 25.892 13.416V41.384C25.892 45.64 24.8027 48.9333 22.624 51.264C20.4453 53.5947 17.304 54.76 13.2 54.76ZM13.2 47.16C16.088 47.16 17.532 45.412 17.532 41.916V12.884C17.532 9.388 16.088 7.64 13.2 7.64C10.312 7.64 8.868 9.388 8.868 12.884V41.916C8.868 45.412 10.312 47.16 13.2 47.16ZM31.3937 48.224C31.3937 44.424 32.0017 41.1813 33.2177 38.496C34.4337 35.76 36.6124 32.7453 39.7537 29.452C42.8444 26.1587 44.9724 23.3467 46.1377 21.016C47.3537 18.6853 47.9617 16.2533 47.9617 13.72C47.9617 11.44 47.5817 9.86933 46.8217 9.008C46.1124 8.096 45.0484 7.64 43.6297 7.64C40.7417 7.64 39.2977 9.388 39.2977 12.884V18.584H31.3937V13.416C31.3937 9.10933 32.4577 5.816 34.5857 3.536C36.7137 1.20533 39.8044 0.0399971 43.8577 0.0399971C47.911 0.0399971 51.0017 1.20533 53.1297 3.536C55.2577 5.816 56.3217 9.10933 56.3217 13.416C56.3217 16.6587 55.5364 19.8253 53.9657 22.916C52.4457 26.0067 49.7857 29.5533 45.9857 33.556C43.503 36.1907 41.831 38.344 40.9697 40.016C40.1084 41.6373 39.6777 43.3853 39.6777 45.26V46.4H55.5617V54H31.3937V48.224Z" fill="#D9D9D9"/>
</svg>
