<svg width="53" height="53" viewBox="0 0 53 53" fill="none" xmlns="http://www.w3.org/2000/svg">
<path d="M48.1818 16.8619C49.4597 16.8619 50.6852 17.3695 51.5888 18.2732C52.4924 19.1768 53 20.4024 53 21.6803V31.3171C53 32.595 52.4924 33.8206 51.5888 34.7243C50.6852 35.6279 49.4597 36.1355 48.1818 36.1355H45.6234C45.0361 40.7933 42.7692 45.0765 39.2483 48.1816C35.7274 51.2866 31.1944 52.9999 26.5 53V48.1816C30.3336 48.1816 34.0102 46.6586 36.7209 43.9477C39.4317 41.2369 40.9545 37.5601 40.9545 33.7263V19.2711C40.9545 15.4373 39.4317 11.7606 36.7209 9.04967C34.0102 6.33878 30.3336 4.81582 26.5 4.81582C22.6664 4.81582 18.9898 6.33878 16.2791 9.04967C13.5683 11.7606 12.0455 15.4373 12.0455 19.2711V36.1355H4.81818C3.54032 36.1355 2.3148 35.6279 1.41121 34.7243C0.507629 33.8206 0 32.595 0 31.3171V21.6803C0 20.4024 0.507629 19.1768 1.41121 18.2732C2.3148 17.3695 3.54032 16.8619 4.81818 16.8619H7.37664C7.96453 12.2046 10.2316 7.92195 13.7525 4.81745C17.2733 1.71295 21.806 0 26.5 0C31.194 0 35.7267 1.71295 39.2475 4.81745C42.7684 7.92195 45.0355 12.2046 45.6234 16.8619H48.1818ZM16.2855 35.6176L18.8391 31.5315C21.1351 32.9699 23.7907 33.7307 26.5 33.7263C29.2093 33.7307 31.8649 32.9699 34.1609 31.5315L36.7145 35.6176C33.6532 37.5356 30.1125 38.5503 26.5 38.5447C22.8875 38.5503 19.3468 37.5356 16.2855 35.6176Z" fill="black"/>
</svg>
