<svg width="53" height="54" viewBox="0 0 53 54" fill="none" xmlns="http://www.w3.org/2000/svg">
<path d="M27.6103 3.02234C36.9643 3.02234 44.4617 10.7553 44.4617 20.137C44.4617 23.8419 43.7466 26.2238 41.6056 29.2326C38.768 33.1881 36.0364 35.5337 36.0364 40.403V44.1273C36.0364 48.746 32.0732 52.2914 27.4689 52.2914C22.8091 52.2914 18.9006 48.5865 18.9006 43.913C18.9006 42.8026 19.7208 41.8348 20.8288 41.8348C22.5063 41.8348 22.4348 44.0016 23.0422 45.56C23.7917 47.4576 25.3439 48.5671 27.3974 48.5671C30.0213 48.5671 32.3239 46.6164 32.3239 43.9839V39.8301C32.3239 31.4331 40.8922 28.4622 40.8922 20.0652C40.8922 12.6352 34.8755 6.60237 27.4681 6.60237C22.8798 6.60237 19.6493 8.10593 16.8992 11.7585C15.2747 13.9253 14.5428 15.5183 14.1861 18.2031C13.9716 19.8678 13.9379 22.0708 12.2588 22.0708C11.1516 22.0708 10.3306 21.1039 10.3306 19.9935C10.3297 10.5418 18.1838 3.02234 27.6094 3.02234H27.6103Z" fill="black"/>
<path d="M27.1097 8.17773C33.7507 8.17773 39.462 13.263 39.462 19.9227C39.462 20.7817 38.8908 21.6406 38.0344 21.6406C37.1056 21.6406 36.892 20.5488 36.749 19.6359C36.4276 17.6311 36.2661 16.3419 35.1775 14.624C33.3931 11.8126 30.8054 10.8997 27.4672 10.8997C24.3074 10.8997 22.0587 11.956 20.1835 14.4797C19.1656 15.8415 18.5304 17.6615 18.2099 19.3448C17.96 20.7235 18.2393 21.7849 16.8294 21.7849C15.9544 21.7849 15.4724 20.872 15.4724 19.9936C15.4741 13.5128 20.6504 8.17773 27.1114 8.17773H27.1097ZM6.68449 34.6023L12.8636 40.7996L11.3207 42.3471L5.1416 36.1497L6.68449 34.6023ZM9.79298 31.4855L15.973 37.6837L14.4292 39.2319L8.24925 33.0338L9.79298 31.4855ZM13.0058 28.2235L19.1849 34.4226L17.642 35.97L11.4629 29.771L13.0066 28.2235H13.0058ZM16.7385 24.5853L22.9176 30.7843L21.3739 32.3318L15.1948 26.1327L16.7385 24.5853Z" fill="black"/>
<path d="M20.1996 21.3123L26.3788 27.5096L24.8359 29.0571L18.6567 22.8597L20.1996 21.3123ZM23.717 17.4546L29.8961 23.6537L28.3524 25.2011L22.1732 19.0021L23.717 17.4546ZM41.1001 3.7918L43.6088 6.30787L41.9877 7.93377L39.479 5.41771L41.1001 3.7918ZM44.3626 0.497803L46.8704 3.01387L45.2484 4.63977L42.7406 2.12371L44.3626 0.497803Z" fill="black"/>
</svg>
